PathFileType	4	(X/Y/Z)	E:\Qualisys_Data\Carbon_Farble_Plate\Data\Amateur_Runner\S1\T2\S1T2V22_c3d.trc
DataRate	CameraRate	NumFrames	NumMarkers	Units	OrigDataRate	OrigDataStartFrame	OrigNumFrames
200.000000	200.000000	5	39	mm	200.000000	152	304
Frame#	Time	LSHO			RSHO			LICST			RICST			LASIS			LHEEL			RASIS			LTROC			RTROC			SACR			LTH1			LSK4			LTH2			LTH3			RHM5			LSK2			LTH4			RTH1			LTOE			RTH2			RTH3			RTH4			LLEP			RLEP			LSK1			LSK3			RSK1			LHM5			RSK2			LFT1			RSK3			RSK4			LLME			RLME			RTOE			RHEEL			RFT1			RFT2			LFT2			
		X1	Y1	Z1	X2	Y2	Z2	X3	Y3	Z3	X4	Y4	Z4	X5	Y5	Z5	X6	Y6	Z6	X7	Y7	Z7	X8	Y8	Z8	X9	Y9	Z9	X10	Y10	Z10	X11	Y11	Z11	X12	Y12	Z12	X13	Y13	Z13	X14	Y14	Z14	X15	Y15	Z15	X16	Y16	Z16	X17	Y17	Z17	X18	Y18	Z18	X19	Y19	Z19	X20	Y20	Z20	X21	Y21	Z21	X22	Y22	Z22	X23	Y23	Z23	X24	Y24	Z24	X25	Y25	Z25	X26	Y26	Z26	X27	Y27	Z27	X28	Y28	Z28	X29	Y29	Z29	X30	Y30	Z30	X31	Y31	Z31	X32	Y32	Z32	X33	Y33	Z33	X34	Y34	Z34	X35	Y35	Z35	X36	Y36	Z36	X37	Y37	Z37	X38	Y38	Z38	X39	Y39	Z39	

153	0.76	-305.9933166503906	1530.143920898438	-558.1323852539062	-392.5605773925781	1507.213134765625	-246.52197265625	-355.3936157226562	1049.361694335938	-558.923828125	-355.872314453125	1070.721435546875	-261.1637268066406	-313.58984375	1007.194458007812	-534.6107788085938	-959.588623046875	424.4039001464844	-445.2520446777344	-317.1256713867188	1023.945739746094	-270.9944152832031	-442.0125427246094	942.669677734375	-573.8894653320312	-415.4664001464844	929.8109741210938	-233.8334808349609	-474.3360595703125	1079.74658203125	-407.0218505859375	-371.2947998046875	760.4741821289062	-539.5904541015625	-831.3782958984375	473.0143432617188	-482.29296875	-443.1497192382812	781.68701171875	-572.6807250976562	-407.4585876464844	663.4026489257812	-524.2147216796875	72.54029846191406	174.7222290039062	-264.2166442871094	-741.5037841796875	507.2516784667969	-522.0979614257812	-484.0579833984375	689.5331420898438	-550.1080932617188	-257.4447326660156	831.170654296875	-260.3267211914062	-916.7298583984376	173.2503356933594	-421.6731872558594	-326.0401611328125	804.710205078125	-225.0598449707031	-221.9540405273438	735.82568359375	-262.6565246582031	-294.0620422363281	709.5049438476562	-235.2914428710938	-525.5548095703125	539.5457153320312	-514.9139404296875	-193.8492889404297	576.013427734375	-284.7072143554688	-711.7213134765625	429.9358825683594	-512.1181640625	-808.0009155273438	399.4723510742188	-504.4032287597656	-133.1067962646484	400.7893676757812	-262.5871276855469	-971.3028564453124	222.7398681640625	-488.8817443847656	-209.0356140136719	373.870849609375	-273.4912414550781	-980.6278686523438	413.4753112792969	-414.7115783691406	-95.52799987792967	308.1536254882812	-274.9599609375	-170.3005065917969	282.2397766113281	-296.4571533203125	-926.8055419921876	375.950927734375	-495.732421875	-72.8789291381836	170.7627716064453	-277.354736328125	113.8852615356445	222.1327667236328	-341.0213928222656	-110.6336364746094	101.5530624389648	-320.0904846191406	-83.49777221679688	81.86260986328125	-351.0256652832031	-89.87709045410156	79.3846435546875	-296.5684204101562	-992.4044799804688	409.0411682128906	-467.7781677246094
154	0.765	-285.5684204101562	1528.018310546875	-556.666748046875	-372.5050048828125	1504.311767578125	-245.3123931884766	-335.5682983398438	1046.38720703125	-559.0808715820312	-336.3923645019531	1068.570922851562	-261.5303344726562	-293.5426940917969	1004.466674804688	-534.3464965820312	-937.3396606445312	431.0379943847656	-445.0388793945312	-297.2997741699219	1022.022277832031	-271.1885070800781	-421.1536254882812	939.4230346679688	-574.4248657226562	-395.7081604003906	927.1798706054688	-233.9033660888672	-454.3439331054688	1076.590087890625	-407.6166687011719	-348.7601928710938	757.3936157226562	-539.841796875	-807.9127807617188	476.74853515625	-482.1748657226562	-420.7544250488281	778.2839965820312	-572.7642822265625	-383.5364990234375	660.3685913085938	-524.708740234375	90.86968231201172	171.90087890625	-264.7857971191406	-717.2167358398438	508.6502380371094	-521.9215698242188	-460.8283996582031	685.7919921875	-550.2075805664062	-238.4494781494141	827.4470825195312	-259.7987670898438	-899.9863891601562	179.1828918457031	-422.638427734375	-307.2497253417969	801.872314453125	-224.6890258789062	-204.1123809814453	731.790283203125	-262.4523620605469	-276.8268432617188	705.9192504882812	-235.4801025390625	-500.7218627929688	535.4967651367188	-516.2991333007812	-175.5060577392578	573.2858276367188	-285.4385986328125	-689.3770751953125	430.2793579101562	-512.5400390625	-786.5785522460938	402.5895385742188	-504.40673828125	-113.7632141113281	398.2664794921875	-263.5929870605469	-953.4308471679688	229.8196258544922	-489.1491394042969	-189.8508453369141	370.9528198242188	-273.602294921875	-958.3548583984376	420.9018859863281	-414.378662109375	-76.15203094482422	305.2630920410156	-276.3218688964844	-151.0995635986328	278.9695129394531	-296.20849609375	-905.93310546875	382.1954345703125	-495.8694458007812	-54.37556838989258	167.5258331298828	-278.460693359375	132.7842559814453	218.9854888916016	-341.2655639648438	-92.15575408935548	98.6875457763672	-320.9265441894531	-64.91523742675781	78.72209930419922	-351.8795471191406	-71.67182922363281	76.52529907226562	-297.9754638671875	-970.6094360351562	416.5080871582031	-467.1158142089844
155	0.77	-265.4046020507812	1525.909790039062	-555.541015625	-352.5211791992188	1500.845092773438	-244.2497406005859	-315.6535949707031	1043.508911132812	-559.2008056640625	-316.9131164550781	1066.030883789062	-261.8872985839844	-273.4971313476562	1002.001586914062	-534.3577880859375	-914.5020751953124	437.8455505371094	-444.8450622558594	-277.56787109375	1019.747253417969	-271.2689208984375	-400.4906616210938	935.4219360351562	-575.034423828125	-375.6186218261719	924.744384765625	-233.8154907226562	-434.96826171875	1073.4599609375	-407.6585998535156	-326.0700988769531	754.385986328125	-540.4472045898438	-783.8924560546875	479.8460693359375	-481.9251403808594	-400.9921569824219	773.1461181640625	-571.1312255859375	-359.7027282714844	656.7816162109375	-525.179443359375	108.1302108764648	167.8224945068359	-265.4439392089844	-692.14208984375	509.6417236328125	-522.0661010742188	-437.2207946777344	681.0987548828125	-550.3423461914062	-219.0201110839844	824.4610595703125	-259.0106201171875	-882.2632446289062	185.0958251953125	-423.4501953125	-288.6334228515625	799.2660522460938	-224.667724609375	-184.7523345947266	728.73876953125	-261.3985900878906	-258.3021240234375	702.982177734375	-236.7527465820312	-475.5357055664062	530.9829711914062	-516.6275024414062	-157.3685302734375	571.3145141601562	-285.493408203125	-666.8406982421875	430.3589477539062	-512.7305908203125	-764.6787109375	404.7648620605469	-504.4912109375	-94.31575775146484	394.9183349609375	-264.4786071777344	-935.1181640625	237.1559143066406	-489.6734008789062	-170.873046875	367.8083801269531	-273.5264892578125	-935.5073852539062	428.0720520019531	-413.226318359375	-57.79376220703125	302.0832824707031	-277.7307434082031	-132.7935943603516	276.0086364746094	-296.0220642089844	-884.268798828125	387.6393127441406	-495.5558166503906	-36.78042221069336	164.0321502685547	-279.4187316894531	150.5288848876953	215.4948120117188	-341.4809265136719	-74.86317443847656	95.07254028320312	-322.8237915039062	-47.230224609375	75.38130950927734	-353.7488708496094	-53.90285110473633	73.12054443359375	-299.0488586425781	-947.9127807617188	423.6934204101562	-466.98388671875
156	0.775	-245.1389007568359	1523.396118164062	-554.1140747070312	-332.0158386230469	1497.2587890625	-243.4089813232422	-295.7272644042969	1040.116088867188	-559.5550537109375	-297.3506774902344	1063.768676757812	-261.9291076660156	-253.3113403320312	998.8842163085938	-534.3568115234375	-891.092529296875	444.1602172851562	-444.5050964355469	-258.1266174316406	1017.114074707031	-271.2322387695312	-380.2014465332031	931.4634399414062	-575.765380859375	-355.6043090820312	921.6093139648438	-233.5228881835938	-415.1907958984375	1070.254638671875	-408.5003662109375	-303.52392578125	751.211181640625	-540.9398803710938	-759.1654663085938	482.6567687988281	-481.6730041503906	-379.0145263671875	768.7887573242188	-571.3228149414062	-335.6832580566406	652.7081909179688	-525.90478515625	124.5289916992188	163.2378845214844	-266.0964660644531	-667.2255859375	510.3693542480469	-521.6522827148438	-413.4825744628906	676.63330078125	-550.3527221679688	-199.2034912109375	822.4188842773438	-258.4239807128906	-864.0812377929688	190.7099914550781	-424.2140502929688	-269.1434020996094	796.4822387695312	-224.8379364013672	-164.5109710693359	726.861572265625	-260.1007385253906	-239.2900543212891	700.553955078125	-237.9555358886719	-450.03173828125	526.2265625	-517.7103881835938	-139.0897979736328	568.774169921875	-286.4274597167969	-643.7666625976562	430.3212890625	-512.8812866210938	-742.0992431640625	407.5576782226562	-504.9755554199219	-76.62120056152344	391.5903930664062	-265.4299011230469	-915.6759643554688	244.1994323730469	-490.3147583007812	-153.1512756347656	364.6680603027344	-273.7237854003906	-912.1476440429688	434.9019775390625	-413.3999328613281	-40.32555389404297	298.5025024414062	-278.8428039550781	-115.6162490844727	272.7574462890625	-296.6774291992188	-861.7452392578125	393.8682556152344	-495.4195556640625	-20.37014579772949	159.7232208251953	-280.3040771484375	166.6674652099609	211.7413177490234	-341.6441650390625	-58.39011383056641	91.22721099853516	-323.5128173828125	-31.02856826782227	71.86045837402344	-355.4132995605469	-37.85277938842773	68.50177764892578	-300.6477355957031	-924.4163818359376	430.4932556152344	-466.7709045410156
157	0.78	-225.0770721435547	1520.673950195312	-553.1109008789062	-312.1962890625	1493.029296875	-242.4405517578125	-275.8666381835938	1036.593383789062	-559.6702880859375	-278.4513549804688	1061.068603515625	-262.3257446289062	-233.4130859375	995.5820922851562	-534.3129272460938	-866.7908325195312	449.938232421875	-444.6348571777344	-238.7431030273438	1014.429748535156	-271.2446594238281	-359.655029296875	926.7269897460938	-576.0028076171875	-337.7970886230469	919.8213500976562	-235.4092559814453	-394.6682739257812	1066.828979492188	-408.4224243164062	-281.1216430664062	747.4449462890625	-541.4697265625	-733.9200439453125	485.0198974609375	-481.330078125	-356.9247436523438	764.4201049804688	-571.6143188476562	-312.1641235351562	648.92529296875	-526.9229125976562	139.7046051025391	157.9819946289062	-266.6411437988281	-642.6861572265625	511.3126220703125	-523.339599609375	-390.4031372070312	671.6503295898438	-550.4752807617188	-179.5195922851562	820.7437744140625	-256.379638671875	-845.1312255859375	195.6589202880859	-425.0355529785156	-249.6520233154297	793.8299560546875	-225.3728637695312	-144.2197418212891	725.2127075195312	-258.8515625	-219.3718566894531	698.546875	-239.3909606933594	-423.7477111816406	521.0751342773438	-519.0889892578125	-120.4761199951172	565.6297607421875	-286.120849609375	-620.0982666015625	429.6825256347656	-513.5443725585938	-718.9230346679688	409.8497314453125	-504.5959777832031	-59.78154754638672	387.2672119140625	-266.7816162109375	-895.4113159179688	250.6623992919922	-490.6170654296875	-136.3252258300781	360.9842834472656	-274.7175903320312	-887.9292602539062	441.1031799316406	-413.10400390625	-23.9151611328125	294.1895446777344	-280.1369323730469	-99.4114227294922	268.6956787109375	-297.0702819824219	-838.7205200195312	399.2585754394531	-495.6215209960938	-4.941431522369385	155.1053619384766	-281.3384704589844	181.5439147949219	207.5468292236328	-341.7870483398438	-43.53264999389648	86.6327133178711	-324.6840209960938	-16.10636329650879	67.74629974365234	-356.8603820800781	-22.88641548156738	63.56190490722656	-302.2625427246094	-900.3056640625	437.0547790527344	-466.560791015625
